<?xml version="1.0" encoding="UTF-8"?><svg id="Ebene_1" xmlns="http://www.w3.org/2000/svg" viewBox="0 0 170.0786 30.8798"><defs><style>.cls-1{fill:#646363;}</style></defs><path class="cls-1" d="M169.6431,10.0688v-1.1313h-3.7486v-3.44h3.5723v-1.0879h-3.5723V1.2641h3.7486V.1469h-5.1006V10.0688h5.1006Zm-8.2334,0v-1.1606h-3.5572V.1469h-1.3525V10.0688h4.9097Zm-8.042,0v-1.1606h-3.5572V.1469h-1.3525V10.0688h4.9097Zm-10.7613-3.3955h-3.5132l1.3228-3.6748c.1621-.4702,.2939-.9116,.4121-1.3374h.0293c.1172,.4258,.25,.8672,.4258,1.3525l1.3232,3.6597Zm2.69,3.3955L141.6509,.1469h-1.4991l-3.6162,9.9219h1.3819l.8227-2.3223h4.2193l.8227,2.3223h1.5142Zm-9.9634-8.79V.1469h-7.0703V1.2788h2.8515V10.0688h1.3526V1.2788h2.8662Zm-10.1748,8.79v-1.1313h-3.7485v-3.44h3.5722v-1.0879h-3.5722V1.2641h3.7485V.1469h-5.1006V10.0688h5.1006Zm-8.7583,0L114.9009,.1469h-1.6758l-2.146,6.336c-.2207,.6465-.3677,1.1899-.544,1.8808h-.0297c-.1612-.7202-.3819-1.4404-.5581-1.9697L107.8599,.1469h-1.6612l-1.4551,9.9219h1.3814l.6763-5.6001c.1176-.9702,.2207-1.7637,.2793-2.5723h.0146c.1621,.6758,.3677,1.4107,.6323,2.2046l2.0137,5.9678h1.4404l2.1314-6.3794c.2353-.7202,.3823-1.3232,.4853-1.793h.0298c.0586,.5879,.1611,1.3814,.3086,2.44l.8374,5.7324h1.4258Zm-14.523,0v-1.1606h-3.5571V.1469h-1.3525V10.0688h4.9096Zm-8.6723,0v-1.1313h-3.7481v-3.44h3.5723v-1.0879h-3.5723V1.2641h3.7481V.1469h-5.1001V10.0688h5.1001Zm-10.1924-4.9829c0,2.6899-1.6318,3.8955-3.9541,3.8955-.397,0-.9409-.0298-1.3086-.0884V1.2495c.3677-.0147,.9702-.044,1.4849-.044,2.5722,0,3.7778,1.3521,3.7778,3.8804m1.4253-.0879c0-3.4101-1.896-4.895-5.0708-4.895-1.0879,0-2.2051,.0439-2.9697,.0586V10.0688c.7353,0,1.5141,.0596,2.5136,.0596,3.2491,0,5.5269-1.7349,5.5269-5.1304m-11.8037,5.0708v-1.1313h-3.7481v-3.44h3.5718v-1.0879h-3.5718V1.2641h3.7481V.1469h-5.1001V10.0688h5.1001ZM53.79,3.2046c0,.8378-.6176,1.352-1.5879,1.352-.2202,0-.4555-.0142-.5732-.0293V1.9843c.1328-.0146,.397-.0293,.6323-.0293,1.0733,0,1.5288,.4707,1.5288,1.2496m3.0718,6.8642l-2.1016-3.1894c-.2353-.3672-.5-.7354-.7646-1.1177,1.3227-.3228,2.1904-1.4107,2.1904-2.7481,0-2.1025-1.4111-2.9399-3.7485-2.9399-1.1909,0-2.2637,.0142-3.1016,.0732V10.0688h2.293v-3.8804h.0884l2.3515,3.8804h2.793Zm-11.311,0v-1.9692h-3.2925v-2.1905h3.1162v-1.8667h-3.1162v-1.9697h3.2925V.1469h-5.586V10.0688h5.586ZM36.1001,.4262c-.8374-.2495-1.8521-.4262-2.8516-.4262-3.5278,0-5.6889,2.1904-5.6889,5.3505,0,3.0132,1.8232,4.8804,5.042,4.8804,1.2788,0,2.5136-.25,3.4838-.647V4.7773h-2.2929v3.2485c-.2647,.0884-.5884,.1324-.9409,.1324-1.8521,0-2.8223-1.147-2.8223-2.9844,0-1.94,1.2056-3.1304,3.0869-3.1304,.9556,0,1.852,.1909,2.6313,.4995l.3526-2.1167ZM24.0864,.1469h-2.293V10.0688h2.293V.1469Zm-6.0952,9.9219v-1.9692h-3.293v-2.1905h3.1162v-1.8667h-3.1162v-1.9697h3.293V.1469h-5.5859V10.0688h5.5859ZM8.54,.4262c-.8374-.2495-1.852-.4262-2.8515-.4262C2.1606,0,0,2.1904,0,5.3505c0,3.0132,1.8227,4.8804,5.042,4.8804,1.2788,0,2.5137-.25,3.4834-.647V4.7773h-2.293v3.2485c-.2642,.0884-.5879,.1324-.9404,.1324-1.8521,0-2.8223-1.147-2.8223-2.9844,0-1.94,1.2051-3.1304,3.0864-3.1304,.9556,0,1.8526,.1909,2.6314,.4995l.3525-2.1167Z"/><rect class="cls-1" x=".2817" y="17.5586" width="169.7969" height=".7968"/><path class="cls-1" d="M119.0141,26.1982h.6319v2.2412c.0146,.6328,.1763,.9697,1.0503,.9697,.1836,0,.3603-.0293,.5439-.0429v-.6475c-.1177,.0313-.2353,.0313-.3525,.0313-.375,0-.4043-.1778-.4043-.5235v-2.0283h.7568v-.624h-.7568v-1.1397h-.8374v1.1397h-.6319v.624Zm-3.0864,0h.6245v3.1748h.8369v-3.1748h.7125v-.624h-.7125v-.3897c0-.3173,.1836-.3984,.4117-.3984,.1689,0,.2793,.0156,.3891,.0449v-.6543c-.1323-.0361-.3232-.0508-.5879-.0508-.5429,0-1.0498,.1621-1.0498,1.1319v.3164h-.6245v.624Zm-1.1001,.374c0-.7998-.7778-1.1015-1.5205-1.1015-.8389,0-1.6684,.2871-1.7275,1.2636h.8374c.0366-.4121,.3681-.6025,.8384-.6025,.3378,0,.7871,.0811,.7871,.5146,0,.4922-.5371,.4268-1.1402,.5372-.706,.08-1.4619,.2343-1.4619,1.1836,0,.7421,.6172,1.1083,1.3003,1.1083,.4483,0,.9849-.1386,1.3164-.4619,.0654,.3448,.3081,.4619,.6455,.4619,.1397,0,.4043-.0507,.5288-.0957v-.5791c-.0879,.0147-.1543,.0147-.2055,.0147-.1543,0-.1983-.0811-.1983-.2871v-1.9561Zm-.8369,1.5225c0,.5293-.5737,.7207-.9414,.7207-.2939,0-.772-.1104-.772-.4854,0-.4414,.3233-.5732,.6841-.6328,.3672-.0654,.7715-.0586,1.0293-.2275v.625Zm-7.1465,1.2783h.8374v-2.2422c0-.5586,.3604-.999,.919-.999,.4926,0,.728,.2568,.7426,.8525v2.3887h.8375v-2.6094c0-.8515-.521-1.2929-1.3443-1.2929-.5005,0-.9341,.2578-1.1401,.6025h-.0147v-1.9473h-.8374v5.2471Zm-1.2749-2.5283c-.081-.9326-.8301-1.374-1.7119-1.374-1.25,0-1.874,.8965-1.874,2.0429,0,1.1172,.6533,1.9619,1.8447,1.9619,.9776,0,1.5869-.5429,1.7412-1.5283h-.8369c-.081,.544-.4194,.8682-.9043,.8682-.728,0-1.0078-.669-1.0078-1.3018,0-1.1543,.6104-1.3818,1.0444-1.3818,.4629,0,.8013,.25,.8677,.7129h.8369Zm-8.0215,1.3086c.0147,.8965,.7271,1.3222,1.6827,1.3222,.7866,0,1.6972-.33,1.6972-1.2333,0-.75-.6167-.9708-1.2265-1.1114-.6182-.1386-1.2354-.1982-1.2354-.6094,0-.331,.4483-.3896,.6914-.3896,.3677,0,.6983,.1104,.7715,.5068h.8745c-.103-.8447-.8081-1.1679-1.5874-1.1679-.6914,0-1.5874,.2578-1.5874,1.0879,0,.7714,.6021,.9921,1.2192,1.125,.6109,.1386,1.2207,.1904,1.2432,.6318,.022,.4336-.5293,.5-.8452,.5-.4492,0-.8164-.1768-.8608-.6621h-.837Zm-2.1123,1.2197h.8369v-5.2471h-.8369v5.2471Zm-2.3222,0h.8374v-5.2471h-.8374v5.2471Zm-4.0557-2.2334c.022-.5664,.419-1.0078,.9995-1.0078,.5659,0,.9258,.4785,.9551,1.0078h-1.9546Zm2.7925,.5498c.1401-1.1387-.5952-2.2187-1.793-2.2187-1.1318,0-1.8369,.9257-1.8369,2.0068,0,1.168,.668,1.998,1.8589,1.998,.8306,0,1.5361-.4619,1.7197-1.2929h-.7934c-.1475,.4189-.4414,.6328-.9263,.6328-.6983,0-1.0215-.5303-1.0215-1.126h2.7925Zm-8.0654,.4639c.0146,.8965,.727,1.3222,1.6831,1.3222,.7861,0,1.6972-.33,1.6972-1.2333,0-.75-.6167-.9708-1.227-1.1114-.6182-.1386-1.2354-.1982-1.2354-.6094,0-.331,.4483-.3896,.6909-.3896,.3682,0,.6988,.1104,.7725,.5068h.874c-.103-.8447-.8081-1.1679-1.5874-1.1679-.6909,0-1.5874,.2578-1.5874,1.0879,0,.7714,.6021,.9921,1.2197,1.125,.6109,.1386,1.2208,.1904,1.2427,.6318,.022,.4336-.5293,.5-.8452,.5-.4487,0-.8164-.1768-.8603-.6621h-.8374Zm-3.8335-1.0137c.0219-.5664,.4189-1.0078,.9995-1.0078,.5659,0,.9258,.4785,.9555,1.0078h-1.955Zm2.7924,.5498c.1397-1.1387-.5947-2.2187-1.7929-2.2187-1.1319,0-1.8369,.9257-1.8369,2.0068,0,1.168,.6679,1.998,1.8588,1.998,.8306,0,1.5362-.4619,1.7198-1.2929h-.7935c-.147,.4189-.4409,.6328-.9263,.6328-.6982,0-1.0214-.5303-1.0214-1.126h2.7924Zm-4.894-2.1152h-.8369v.5215h-.0147c-.2138-.4268-.6474-.625-1.125-.625-1.0805,0-1.7192,.8818-1.7192,1.9043,0,1.0869,.499,1.998,1.7046,1.998,.4707,0,.9043-.249,1.1396-.668h.0147v.5801c0,.625-.3018,.9717-.9776,.9717-.4267,0-.8095-.082-.9121-.5596h-.8374c.0733,.8897,.9331,1.1826,1.6978,1.1826,1.1977,0,1.8662-.5654,1.8662-1.705v-3.6006Zm-1.8589,3.1387c-.6987,0-1-.6329-1-1.2579,0-.6328,.2573-1.3232,1-1.3232,.7275,0,1.022,.6025,1.022,1.2568,0,.6475-.2798,1.3243-1.022,1.3243m-6.4438,.6601h.8374v-2.2422c0-.5586,.3598-.999,.9184-.999,.4932,0,.7285,.2568,.7432,.8525v2.3887h.8374v-2.6094c0-.8515-.5215-1.2929-1.3447-1.2929-.5005,0-.9341,.2578-1.1841,.6757l-.0147-.0146v-.5576h-.7929v3.7988Zm-4.0323-2.2334c.0225-.5664,.419-1.0078,1-1.0078,.566,0,.9258,.4785,.9551,1.0078h-1.9551Zm2.793,.5498c.1397-1.1387-.5952-2.2187-1.793-2.2187-1.1318,0-1.8369,.9257-1.8369,2.0068,0,1.168,.668,1.998,1.8589,1.998,.8301,0,1.5361-.4619,1.7197-1.2929h-.7939c-.147,.4189-.4409,.6328-.9258,.6328-.6982,0-1.022-.5303-1.022-1.126h2.793Zm-5.7651-2.7705h.8374v-.793h-.8374v.793Zm0,4.4541h.8374v-3.7988h-.8374v3.7988Zm-3.4263-3.1748h.6318v2.2412c.0147,.6328,.1768,.9697,1.0503,.9697,.1836,0,.3599-.0293,.5435-.0429v-.6475c-.1172,.0313-.2349,.0313-.3526,.0313-.375,0-.4043-.1778-.4043-.5235v-2.0283h.7569v-.624h-.7569v-1.1397h-.8369v1.1397h-.6318v.624Zm-4.3105,3.1748h.8374v-1.3594l.4995-.4843,1.1616,1.8437h1.0215l-1.5948-2.4023,1.4551-1.3965h-1.0293l-1.5136,1.5351v-2.9834h-.8374v5.2471Zm-6.0723,0h.9473l.4926-1.3887h2.0948l.4926,1.3887h.9844l-2.021-5.2471h-.9775l-2.0132,5.2471Zm2.4839-4.3437h.0219l.7862,2.2578h-1.6021l.794-2.2578Z"/></svg>